<?xml version="1.0" encoding="UTF-8" standalone="no"?>
<!-- Created with Inkscape (http://www.inkscape.org/) -->

<svg
   xmlns:dc="http://purl.org/dc/elements/1.1/"
   xmlns:cc="http://creativecommons.org/ns#"
   xmlns:rdf="http://www.w3.org/1999/02/22-rdf-syntax-ns#"
   xmlns:svg="http://www.w3.org/2000/svg"
   xmlns="http://www.w3.org/2000/svg"
   xmlns:sodipodi="http://sodipodi.sourceforge.net/DTD/sodipodi-0.dtd"
   xmlns:inkscape="http://www.inkscape.org/namespaces/inkscape"
   width="744.09448819"
   height="1052.3622047"
   id="svg10322"
   version="1.1"
   inkscape:version="0.48.5 r10040"
   sodipodi:docname="ambiguous.pdf">
  <defs
     id="defs10324" />
  <sodipodi:namedview
     id="base"
     pagecolor="#ffffff"
     bordercolor="#666666"
     borderopacity="1.0"
     inkscape:pageopacity="0.0"
     inkscape:pageshadow="2"
     inkscape:zoom="1.4"
     inkscape:cx="267.73468"
     inkscape:cy="769.75524"
     inkscape:document-units="px"
     inkscape:current-layer="layer1"
     showgrid="true"
     inkscape:window-width="1920"
     inkscape:window-height="1017"
     inkscape:window-x="-8"
     inkscape:window-y="-8"
     inkscape:window-maximized="1">
    <inkscape:grid
       type="xygrid"
       id="grid10926" />
  </sodipodi:namedview>
  <metadata
     id="metadata10327">
    <rdf:RDF>
      <cc:Work
         rdf:about="">
        <dc:format>image/svg+xml</dc:format>
        <dc:type
           rdf:resource="http://purl.org/dc/dcmitype/StillImage" />
        <dc:title></dc:title>
      </cc:Work>
    </rdf:RDF>
  </metadata>
  <g
     inkscape:label="Layer 1"
     inkscape:groupmode="layer"
     id="layer1">
    <path
       style="fill:none;stroke:#000000;stroke-width:5;stroke-linecap:butt;stroke-linejoin:miter;stroke-opacity:1;stroke-miterlimit:4;stroke-dasharray:none"
       d="m 82.832509,222.01679 0,-167.685322 174.756391,0 0,167.685322"
       id="path10330"
       inkscape:connector-curvature="0" />
    <path
       style="fill:none;stroke:#000000;stroke-width:5;stroke-linecap:butt;stroke-linejoin:miter;stroke-miterlimit:4;stroke-opacity:1;stroke-dasharray:none"
       d="m 258.09398,281.61579 0,167.68532 -174.756401,0 0,-167.68532"
       id="path10330-6"
       inkscape:connector-curvature="0" />
    <path
       style="fill:none;stroke:#000000;stroke-width:5;stroke-linecap:butt;stroke-linejoin:miter;stroke-miterlimit:4;stroke-opacity:1;stroke-dasharray:none"
       d="m 609.37452,222.52187 0,-167.685323 -174.75639,0 0,167.685323 45.38187,-0.15969 0,60 -45,0"
       id="path10330-4"
       inkscape:connector-curvature="0" />
    <path
       style="fill:none;stroke:#000000;stroke-width:5;stroke-linecap:butt;stroke-linejoin:miter;stroke-miterlimit:4;stroke-opacity:1;stroke-dasharray:none"
       d="m 609.8796,282.12087 0,167.68532 -174.7564,0 0,-167.68532"
       id="path10330-6-6"
       inkscape:connector-curvature="0" />
    <rect
       style="fill:none;stroke:#000000;stroke-width:2;stroke-miterlimit:4;stroke-opacity:1;stroke-dasharray:none;stroke-dashoffset:0"
       id="rect10935"
       width="20"
       height="20"
       x="90"
       y="242.36218" />
    <rect
       style="fill:none;stroke:#000000;stroke-width:2;stroke-miterlimit:4;stroke-opacity:1;stroke-dasharray:none;stroke-dashoffset:0"
       id="rect10937"
       width="20"
       height="20"
       x="230"
       y="242.36218" />
    <rect
       style="fill:none;stroke:#000000;stroke-width:2;stroke-miterlimit:4;stroke-opacity:1;stroke-dasharray:none;stroke-dashoffset:0"
       id="rect10939"
       width="20"
       height="20"
       x="160"
       y="312.36218" />
    <rect
       style="fill:none;stroke:#000000;stroke-width:2;stroke-miterlimit:4;stroke-opacity:1;stroke-dasharray:none;stroke-dashoffset:0"
       id="rect10941"
       width="20"
       height="20"
       x="160"
       y="172.36218" />
    <path
       style="fill:#ff0000;fill-opacity:1;stroke:#000000;stroke-width:1;stroke-miterlimit:4;stroke-opacity:1;stroke-dasharray:none;stroke-dashoffset:0"
       d="m 91.226029,252.32356 0,-8.5863 8.586297,0 8.586294,0 0,8.5863 0,8.58629 -8.586294,0 -8.586297,0 0,-8.58629 z"
       id="path10943"
       inkscape:connector-curvature="0" />
    <path
       style="fill:#ff0000;fill-opacity:1;stroke:#000000;stroke-width:1;stroke-miterlimit:4;stroke-opacity:1;stroke-dasharray:none;stroke-dashoffset:0"
       d="m 231.63723,252.32356 0,-8.5863 8.5863,0 8.5863,0 0,8.5863 0,8.58629 -8.5863,0 -8.5863,0 0,-8.58629 z"
       id="path10945"
       inkscape:connector-curvature="0" />
    <path
       style="fill:#00ff00;fill-opacity:1;stroke:#000000;stroke-width:1;stroke-miterlimit:4;stroke-opacity:1;stroke-dasharray:none;stroke-dashoffset:0"
       d="m 161.93671,182.62303 0,-8.5863 8.08122,0 8.08122,0 0,8.5863 0,8.5863 -8.08122,0 -8.08122,0 0,-8.5863 z"
       id="path10947"
       inkscape:connector-curvature="0" />
    <path
       style="fill:#00ff00;fill-opacity:1;stroke:#000000;stroke-width:1;stroke-miterlimit:4;stroke-opacity:1;stroke-dasharray:none;stroke-dashoffset:0"
       d="m 161.93671,322.02408 0,-8.5863 8.08122,0 8.08122,0 0,8.5863 0,8.5863 -8.08122,0 -8.08122,0 0,-8.5863 z"
       id="path10949"
       inkscape:connector-curvature="0" />
    <path
       style="fill:none;stroke:#000000;stroke-width:1;stroke-linecap:butt;stroke-linejoin:miter;stroke-opacity:1;stroke-miterlimit:4;stroke-dasharray:2,1;stroke-dashoffset:0"
       d="m 100,252.36218 70,-70 70,70 -70,70 z"
       id="path10951"
       inkscape:connector-curvature="0" />
    <path
       style="fill:#ff0000;fill-opacity:1;stroke:#000000;stroke-width:2.02;stroke-miterlimit:4;stroke-opacity:1;stroke-dasharray:none;stroke-dashoffset:0"
       d="m 441.0025,253.77589 0,-8.5863 8.5863,0 8.58629,0 0,8.5863 0,8.58629 -8.58629,0 -8.5863,0 0,-8.58629 z"
       id="path10943-0"
       inkscape:connector-curvature="0" />
    <path
       style="fill:#ff0000;fill-opacity:1;stroke:#000000;stroke-width:2.02;stroke-miterlimit:4;stroke-opacity:1;stroke-dasharray:none;stroke-dashoffset:0"
       d="m 581.4137,253.77589 0,-8.5863 8.5863,0 8.5863,0 0,8.5863 0,8.58629 -8.5863,0 -8.5863,0 0,-8.58629 z"
       id="path10945-3"
       inkscape:connector-curvature="0" />
    <path
       style="fill:#00ff00;fill-opacity:1;stroke:#000000;stroke-width:2.02;stroke-miterlimit:4;stroke-opacity:1;stroke-dasharray:none;stroke-dashoffset:0"
       d="m 511.71318,184.07536 0,-8.5863 8.08122,0 8.08122,0 0,8.5863 0,8.5863 -8.08122,0 -8.08122,0 0,-8.5863 z"
       id="path10947-0"
       inkscape:connector-curvature="0" />
    <path
       style="fill:#00ff00;fill-opacity:1;stroke:#000000;stroke-width:2.02;stroke-miterlimit:4;stroke-opacity:1;stroke-dasharray:none;stroke-dashoffset:0"
       d="m 511.71318,323.4764 0,-8.5863 8.08122,0 8.08122,0 0,8.5863 0,8.5863 -8.08122,0 -8.08122,0 0,-8.5863 z"
       id="path10949-3"
       inkscape:connector-curvature="0" />
    <path
       style="fill:none;stroke:#000000;stroke-width:1;stroke-linecap:butt;stroke-linejoin:miter;stroke-opacity:1;stroke-miterlimit:4;stroke-dasharray:2,1;stroke-dashoffset:0"
       d="m 449.77647,253.81451 70,-70 70,70 -70,69.99999 z"
       id="path10951-5"
       inkscape:connector-curvature="0" />
    <path
       style="fill:none;stroke:#000000;stroke-width:5;stroke-linecap:butt;stroke-linejoin:miter;stroke-opacity:1;stroke-miterlimit:4;stroke-dasharray:none"
       d="m 80,282.36218 180,0"
       id="path11028"
       inkscape:connector-curvature="0" />
    <path
       style="fill:none;stroke:#000000;stroke-width:5;stroke-linecap:butt;stroke-linejoin:miter;stroke-opacity:1;stroke-miterlimit:4;stroke-dasharray:none"
       d="m 80,222.36218 180,0"
       id="path11030"
       inkscape:connector-curvature="0" />
    <path
       style="fill:none;stroke:#000000;stroke-width:5;stroke-linecap:butt;stroke-linejoin:miter;stroke-opacity:1;stroke-miterlimit:4;stroke-dasharray:none"
       d="m 610,282.36218 -50,0 0,-60 50,0"
       id="path11032"
       inkscape:connector-curvature="0" />
    <flowRoot
       xml:space="preserve"
       id="flowRoot11034"
       style="font-size:40px;font-style:normal;font-weight:normal;line-height:125%;letter-spacing:0px;word-spacing:0px;fill:#000000;fill-opacity:1;stroke:none;font-family:Sans"
       transform="translate(-3.5625,18.994463)"><flowRegion
         id="flowRegion11036"><rect
           id="rect11038"
           width="79.285713"
           height="70.714287"
           x="283.57144"
           y="216.6479"
           style="font-size:40px" /></flowRegion><flowPara
         id="flowPara11040">(a)</flowPara></flowRoot>    <flowRoot
       xml:space="preserve"
       id="flowRoot11042"
       style="font-size:20px;font-style:normal;font-weight:normal;line-height:125%;letter-spacing:0px;word-spacing:0px;fill:#000000;fill-opacity:1;stroke:none;font-family:Sans"
       transform="translate(-20,16.869463)"><flowRegion
         id="flowRegion11044"><rect
           id="rect11046"
           width="80"
           height="86.701965"
           x="650"
           y="218.79076" /></flowRegion><flowPara
         id="flowPara11048"
         style="font-size:40px">(b)</flowPara></flowRoot>  </g>
</svg>
