<?xml version="1.0" encoding="UTF-8" standalone="no"?>
<!-- Created with Inkscape (http://www.inkscape.org/) -->

<svg
   xmlns:dc="http://purl.org/dc/elements/1.1/"
   xmlns:cc="http://creativecommons.org/ns#"
   xmlns:rdf="http://www.w3.org/1999/02/22-rdf-syntax-ns#"
   xmlns:svg="http://www.w3.org/2000/svg"
   xmlns="http://www.w3.org/2000/svg"
   xmlns:sodipodi="http://sodipodi.sourceforge.net/DTD/sodipodi-0.dtd"
   xmlns:inkscape="http://www.inkscape.org/namespaces/inkscape"
   width="744.09448819"
   height="1052.3622047"
   id="svg5380"
   version="1.1"
   inkscape:version="0.48.5 r10040"
   sodipodi:docname="pipeline.pdf">
  <defs
     id="defs5382" />
  <sodipodi:namedview
     id="base"
     pagecolor="#ffffff"
     bordercolor="#666666"
     borderopacity="1.0"
     inkscape:pageopacity="0.0"
     inkscape:pageshadow="2"
     inkscape:zoom="0.98994949"
     inkscape:cx="306.38921"
     inkscape:cy="374.98032"
     inkscape:document-units="px"
     inkscape:current-layer="layer1"
     showgrid="false"
     inkscape:window-width="1920"
     inkscape:window-height="1017"
     inkscape:window-x="-8"
     inkscape:window-y="-8"
     inkscape:window-maximized="1" />
  <metadata
     id="metadata5385">
    <rdf:RDF>
      <cc:Work
         rdf:about="">
        <dc:format>image/svg+xml</dc:format>
        <dc:type
           rdf:resource="http://purl.org/dc/dcmitype/StillImage" />
        <dc:title></dc:title>
      </cc:Work>
    </rdf:RDF>
  </metadata>
  <g
     inkscape:label="Layer 1"
     inkscape:groupmode="layer"
     id="layer1">
    <rect
       style="fill:none;stroke:#000000;stroke-width:3.92165351;stroke-miterlimit:4;stroke-opacity:1;stroke-dasharray:none;stroke-dashoffset:0"
       id="rect5392"
       width="517.65826"
       height="129.41457"
       x="120.65273"
       y="173.64691" />
    <text
       xml:space="preserve"
       style="font-size:56.47180939px;font-style:normal;font-weight:normal;line-height:125%;letter-spacing:0px;word-spacing:0px;fill:#000000;fill-opacity:1;stroke:none;font-family:Sans"
       x="222.97427"
       y="258.24258"
       id="text5902"
       sodipodi:linespacing="125%"><tspan
         sodipodi:role="line"
         id="tspan5904"
         x="222.97427"
         y="258.24258">Voxelisation</tspan></text>
    <rect
       style="fill:none;stroke:#000000;stroke-width:3.92165351;stroke-miterlimit:4;stroke-opacity:1;stroke-dasharray:none;stroke-dashoffset:0"
       id="rect5392-8"
       width="517.65826"
       height="129.41457"
       x="120.73116"
       y="442.29602" />
    <text
       xml:space="preserve"
       style="font-size:56.47180939px;font-style:normal;font-weight:normal;line-height:125%;letter-spacing:0px;word-spacing:0px;fill:#000000;fill-opacity:1;stroke:none;font-family:Sans"
       x="221.07068"
       y="526.89172"
       id="text5902-2"
       sodipodi:linespacing="125%"><tspan
         sodipodi:role="line"
         id="tspan5904-7"
         x="221.07068"
         y="526.89172">Partitioning</tspan></text>
    <rect
       style="fill:none;stroke:#000000;stroke-width:3.92165351;stroke-miterlimit:4;stroke-opacity:1;stroke-dasharray:none;stroke-dashoffset:0"
       id="rect5392-7"
       width="517.65826"
       height="129.41457"
       x="120.73116"
       y="714.05267" />
    <text
       xml:space="preserve"
       style="font-size:56.47180939px;font-style:normal;font-weight:normal;line-height:125%;letter-spacing:0px;word-spacing:0px;fill:#000000;fill-opacity:1;stroke:none;font-family:Sans"
       x="221.07068"
       y="798.64832"
       id="text5902-1"
       sodipodi:linespacing="125%"><tspan
         sodipodi:role="line"
         id="tspan5904-2"
         x="221.07068"
         y="798.64832">Remeshing</tspan></text>
    <path
       style="fill:none;stroke:#969696;stroke-width:7.84330702;stroke-linecap:butt;stroke-linejoin:miter;stroke-miterlimit:4;stroke-opacity:1;stroke-dasharray:none;stroke-dashoffset:0"
       d="m 369.45363,302.59151 0,141.02826 0,-3.96146"
       id="path5941"
       inkscape:connector-curvature="0" />
    <path
       style="fill:none;stroke:#969696;stroke-width:7.84330702;stroke-linecap:butt;stroke-linejoin:miter;stroke-miterlimit:4;stroke-opacity:1;stroke-dasharray:none;stroke-dashoffset:0"
       d="M 368.66133,442.03518 339.74262,413.11647 z"
       id="path5945"
       inkscape:connector-curvature="0" />
    <path
       sodipodi:type="arc"
       id="path5947"
       style="fill:#000000;stroke:none"
       sodipodi:cx="359.61432"
       sodipodi:cy="374.54984"
       sodipodi:rx="1.5"
       sodipodi:ry="1.5"
       d="m 361.11432,374.54984 a 1.5,1.5 0 1 1 -3,0 1.5,1.5 0 1 1 3,0 z"
       transform="matrix(0.78433068,0,0,0.78433068,87.397104,148.26426)" />
    <path
       sodipodi:type="arc"
       id="path5949"
       style="fill:#000000;stroke:none"
       sodipodi:cx="359.61432"
       sodipodi:cy="374.54984"
       sodipodi:rx="1.5"
       sodipodi:ry="1.5"
       d="m 361.11432,374.54984 a 1.5,1.5 0 1 1 -3,0 1.5,1.5 0 1 1 3,0 z"
       transform="matrix(0.78433068,0,0,0.78433068,87.397104,148.26426)" />
    <path
       style="fill:none;stroke:#969696;stroke-width:8.63766479;stroke-linecap:butt;stroke-linejoin:miter;stroke-miterlimit:4;stroke-opacity:1;stroke-dasharray:none;stroke-dashoffset:0"
       d="m 365.88934,444.80718 29.70895,-30.50124 z"
       id="path5951"
       inkscape:connector-curvature="0" />
    <path
       style="fill:none;stroke:#969696;stroke-width:7.84330702;stroke-linecap:butt;stroke-linejoin:miter;stroke-miterlimit:4;stroke-opacity:1;stroke-dasharray:none;stroke-dashoffset:0"
       d="m 369.45363,571.17905 0,141.02826 0,-3.96146"
       id="path5941-9"
       inkscape:connector-curvature="0" />
    <path
       style="fill:none;stroke:#969696;stroke-width:7.84330702;stroke-linecap:butt;stroke-linejoin:miter;stroke-miterlimit:4;stroke-opacity:1;stroke-dasharray:none;stroke-dashoffset:0"
       d="M 368.66133,710.62272 339.74262,681.70401 z"
       id="path5945-4"
       inkscape:connector-curvature="0" />
    <path
       style="fill:none;stroke:#969696;stroke-width:8.54052067;stroke-linecap:butt;stroke-linejoin:miter;stroke-miterlimit:4;stroke-opacity:1;stroke-dasharray:none;stroke-dashoffset:0"
       d="m 367.42535,714.23558 28.22152,-31.39067 z"
       id="path5951-6"
       inkscape:connector-curvature="0" />
    <path
       style="fill:none;stroke:#969696;stroke-width:7.84330702;stroke-linecap:butt;stroke-linejoin:miter;stroke-miterlimit:4;stroke-opacity:1;stroke-dasharray:none;stroke-dashoffset:0"
       d="m 369.28011,843.27886 0,141.02826 0,-3.96146"
       id="path5941-9-0"
       inkscape:connector-curvature="0" />
    <path
       style="fill:none;stroke:#969696;stroke-width:7.84330702;stroke-linecap:butt;stroke-linejoin:miter;stroke-miterlimit:4;stroke-opacity:1;stroke-dasharray:none;stroke-dashoffset:0"
       d="M 368.48781,982.72253 339.5691,953.80382 z"
       id="path5945-4-3"
       inkscape:connector-curvature="0" />
    <path
       style="fill:none;stroke:#969696;stroke-width:8.54052067;stroke-linecap:butt;stroke-linejoin:miter;stroke-miterlimit:4;stroke-opacity:1;stroke-dasharray:none;stroke-dashoffset:0"
       d="m 367.25183,986.33539 28.22152,-31.39067 z"
       id="path5951-6-6"
       inkscape:connector-curvature="0" />
    <path
       style="fill:none;stroke:#969696;stroke-width:7.84330702;stroke-linecap:butt;stroke-linejoin:miter;stroke-miterlimit:4;stroke-opacity:1;stroke-dasharray:none;stroke-dashoffset:0"
       d="m 371.30041,29.095917 0,141.028253 0,-3.96146"
       id="path5941-9-2"
       inkscape:connector-curvature="0" />
    <path
       style="fill:none;stroke:#969696;stroke-width:7.84330702;stroke-linecap:butt;stroke-linejoin:miter;stroke-miterlimit:4;stroke-opacity:1;stroke-dasharray:none;stroke-dashoffset:0"
       d="M 370.50811,168.53958 341.5894,139.62087 z"
       id="path5945-4-4"
       inkscape:connector-curvature="0" />
    <path
       style="fill:none;stroke:#969696;stroke-width:8.54052067;stroke-linecap:butt;stroke-linejoin:miter;stroke-miterlimit:4;stroke-opacity:1;stroke-dasharray:none;stroke-dashoffset:0"
       d="m 369.27213,172.15244 28.22152,-31.39067 z"
       id="path5951-6-5"
       inkscape:connector-curvature="0" />
    <flowRoot
       xml:space="preserve"
       id="flowRoot6040"
       style="font-size:40px;font-style:normal;font-weight:normal;line-height:125%;letter-spacing:0px;word-spacing:0px;fill:#000000;fill-opacity:1;stroke:none;font-family:Sans"
       transform="translate(5.0507627,10.101525)"><flowRegion
         id="flowRegion6042"><rect
           id="rect6044"
           width="262.63965"
           height="51.51778"
           x="386.88843"
           y="72.514214" /></flowRegion><flowPara
         id="flowPara6046">Object mesh</flowPara></flowRoot>    <flowRoot
       xml:space="preserve"
       id="flowRoot6048"
       style="font-size:40px;font-style:normal;font-weight:normal;line-height:125%;letter-spacing:0px;word-spacing:0px;fill:#000000;fill-opacity:1;stroke:none;font-family:Sans"
       transform="translate(8.0812204,8.0812204)"><flowRegion
         id="flowRegion6050"><rect
           id="rect6052"
           width="263.64981"
           height="55.558392"
           x="383.85797"
           y="349.29602" /></flowRegion><flowPara
         id="flowPara6054">Voxel Grid</flowPara></flowRoot>    <flowRoot
       xml:space="preserve"
       id="flowRoot6056"
       style="font-size:40px;font-style:normal;font-weight:normal;line-height:125%;letter-spacing:0px;word-spacing:0px;fill:#000000;fill-opacity:1;stroke:none;font-family:Sans"
       transform="translate(3.0304576,22.223356)"><flowRegion
         id="flowRegion6058"><rect
           id="rect6060"
           width="370.72598"
           height="65.659912"
           x="386.88843"
           y="603.85443" /></flowRegion><flowPara
         id="flowPara6062">Fragmented solid</flowPara></flowRoot>    <flowRoot
       xml:space="preserve"
       id="flowRoot6064"
       style="fill:black;stroke:none;stroke-opacity:1;stroke-width:1px;stroke-linejoin:miter;stroke-linecap:butt;fill-opacity:1;font-family:Sans;font-style:normal;font-weight:normal;font-size:40px;line-height:125%;letter-spacing:0px;word-spacing:0px"><flowRegion
         id="flowRegion6066"><rect
           id="rect6068"
           width="308.09653"
           height="55.558392"
           x="394.96964"
           y="885.68701" /></flowRegion><flowPara
         id="flowPara6070" /></flowRoot>    <text
       xml:space="preserve"
       style="font-size:40px;font-style:normal;font-weight:normal;line-height:125%;letter-spacing:0px;word-spacing:0px;fill:#000000;fill-opacity:1;stroke:none;font-family:Sans"
       x="387.89859"
       y="927.10327"
       id="text6072"
       sodipodi:linespacing="125%"><tspan
         sodipodi:role="line"
         id="tspan6074"
         x="387.89859"
         y="927.10327">Fragments</tspan></text>
    <path
       style="fill:#ff0000;fill-opacity:1;stroke:none"
       d="m 355.96521,158.62046 -16.28539,-15.93687 2.24794,-2.39282 2.24793,-2.39281 11.1746,11.1429 c 6.14604,6.1286 11.50842,11.1429 11.91642,11.1429 0.40799,0 0.74181,-29.31968 0.74181,-65.154838 l 0,-65.154839 3.53553,0 3.53553,0 0.0218,64.902301 0.0218,64.902306 4.78194,-5.05077 c 2.63007,-2.77792 6.9643,-7.51493 9.63163,-10.52668 l 4.84968,-5.47591 2.63662,2.63662 2.63662,2.63663 -12.46647,13.95096 c -6.85656,7.67304 -13.0236,14.57126 -13.70452,15.32939 -1.01657,1.13182 -4.15143,-1.47262 -17.52345,-14.55847 z"
       id="path3079"
       inkscape:connector-curvature="0" />
    <path
       style="fill:#ff0000;fill-opacity:1;stroke:none"
       d="m 353.06722,431.62104 -15.42985,-15.45398 2.58963,-2.43284 2.58964,-2.43283 11.58579,11.55291 11.58578,11.55293 0,-65.89598 0,-65.89598 3.53553,0 3.53554,0 0,64.86991 0,64.86991 9.51042,-10.06913 9.51042,-10.06914 2.85033,2.78726 2.85033,2.78726 -14.64185,14.64185 -14.64185,14.64185 -15.42986,-15.454 z"
       id="path3081"
       inkscape:connector-curvature="0" />
    <path
       style="fill:#ff0000;fill-opacity:1;stroke:none"
       d="m 354.69472,701.00983 c -8.51155,-8.59152 -15.60025,-15.97835 -15.75267,-16.41519 -0.15241,-0.43684 0.66189,-1.64403 1.80956,-2.68266 2.0691,-1.87251 2.18419,-1.7912 13.66164,9.6537 l 11.57496,11.54213 0,-65.89598 0,-65.89598 3.52817,0 3.52816,0 0.25991,65.32303 0.2599,65.32303 9.09138,-10.25201 c 5.00025,-5.6386 9.40695,-10.25998 9.79265,-10.26972 0.38571,-0.0101 1.83269,1.00508 3.2155,2.25514 l 2.51422,2.27284 -14.00391,15.3313 -14.00392,15.33131 -15.47555,-15.62094 0,0 z"
       id="path3083"
       inkscape:connector-curvature="0" />
    <path
       style="fill:#ff0000;fill-opacity:1;stroke:none"
       d="m 353.94491,972.80341 -16.28539,-15.93687 2.24793,-2.39282 2.24794,-2.39281 11.1746,11.1429 c 6.14603,6.1286 11.50842,11.14291 11.91641,11.14291 0.408,0 0.74181,-29.31968 0.74181,-65.15484 l 0,-65.15484 3.53553,0 3.53554,0 0.0218,64.9023 0.0218,64.9023 4.78194,-5.05076 c 2.63006,-2.77792 6.96429,-7.51493 9.63162,-10.52668 l 4.84969,-5.47592 2.63662,2.63662 2.63662,2.63663 -12.46648,13.95097 c -6.85656,7.67303 -13.02359,14.57125 -13.70452,15.32938 -1.01657,1.13182 -4.15142,-1.47262 -17.52344,-14.55847 z"
       id="path3085"
       inkscape:connector-curvature="0" />
  </g>
</svg>
