<?xml version="1.0" encoding="UTF-8" standalone="no"?>
<!-- Created with Inkscape (http://www.inkscape.org/) -->

<svg
   xmlns:dc="http://purl.org/dc/elements/1.1/"
   xmlns:cc="http://creativecommons.org/ns#"
   xmlns:rdf="http://www.w3.org/1999/02/22-rdf-syntax-ns#"
   xmlns:svg="http://www.w3.org/2000/svg"
   xmlns="http://www.w3.org/2000/svg"
   xmlns:sodipodi="http://sodipodi.sourceforge.net/DTD/sodipodi-0.dtd"
   xmlns:inkscape="http://www.inkscape.org/namespaces/inkscape"
   width="744.09448819"
   height="1052.3622047"
   id="svg2"
   version="1.1"
   inkscape:version="0.48.5 r10040"
   sodipodi:docname="projection.pdf">
  <defs
     id="defs4" />
  <sodipodi:namedview
     id="base"
     pagecolor="#ffffff"
     bordercolor="#666666"
     borderopacity="1.0"
     inkscape:pageopacity="0.0"
     inkscape:pageshadow="2"
     inkscape:zoom="1.4"
     inkscape:cx="460.3872"
     inkscape:cy="789.39442"
     inkscape:document-units="px"
     inkscape:current-layer="layer1"
     showgrid="true"
     showguides="true"
     inkscape:window-width="1920"
     inkscape:window-height="1017"
     inkscape:window-x="-8"
     inkscape:window-y="-8"
     inkscape:window-maximized="1">
    <inkscape:grid
       type="axonomgrid"
       id="grid2989"
       units="mm"
       empspacing="5"
       visible="true"
       enabled="true"
       snapvisiblegridlinesonly="true" />
  </sodipodi:namedview>
  <metadata
     id="metadata7">
    <rdf:RDF>
      <cc:Work
         rdf:about="">
        <dc:format>image/svg+xml</dc:format>
        <dc:type
           rdf:resource="http://purl.org/dc/dcmitype/StillImage" />
        <dc:title></dc:title>
      </cc:Work>
    </rdf:RDF>
  </metadata>
  <g
     inkscape:label="Layer 1"
     inkscape:groupmode="layer"
     id="layer1">
    <path
       style="fill:none;stroke:#969696;stroke-width:1px;stroke-linecap:butt;stroke-linejoin:miter;stroke-opacity:1"
       d="M 168.77267,334.8425 429.60315,184.25195 598.37582,281.69289 337.54533,432.28344 z"
       id="path2991"
       inkscape:connector-curvature="0" />
    <path
       style="fill:none;stroke:#969696;stroke-width:1px;stroke-linecap:butt;stroke-linejoin:miter;stroke-opacity:1"
       d="m 184.11564,343.70077 260.83048,-150.59056 15.34297,8.85827 -260.83048,150.59055 15.34297,8.85827 260.83048,-150.59055 15.34297,8.85827 -260.83048,150.59055 15.34297,8.85827 260.83048,-150.59056 15.34297,8.85827 -260.83048,150.59055 15.34297,8.85827 260.83048,-150.59055 15.34297,8.85827 -260.83048,150.59055 15.34297,8.85827 260.83048,-150.59055 15.34297,8.85826 -260.83049,150.59055 0,0"
       id="path2993"
       inkscape:connector-curvature="0" />
    <path
       style="fill:none;stroke:#969696;stroke-width:1px;stroke-linecap:butt;stroke-linejoin:miter;stroke-opacity:1"
       d="m 184.11564,325.98423 168.77266,97.44094 15.34297,-8.85826 -168.77266,-97.44095 15.34297,-8.85827 168.77266,97.44095 15.34297,-8.85827 -168.77266,-97.44094 15.34297,-8.85827 168.77266,97.44094 15.34297,-8.85826 -168.77266,-97.44095 15.34297,-8.85827 168.77266,97.44095 15.34297,-8.85827 -168.77266,-97.44094 15.34297,-8.85827 168.77266,97.44094 15.34297,-8.85826 -168.77267,-97.44095 15.34297,-8.85827 168.77267,97.44095 15.34297,-8.85827 -168.77267,-97.44095 15.34297,-8.85826 168.77267,97.44094 15.34297,-8.85827 -168.77267,-97.44094 15.34297,-8.85827 168.77267,97.44095 15.34297,-8.85827 -168.77267,-97.44095 0,0"
       id="path2995"
       inkscape:connector-curvature="0" />
    <path
       style="fill:none;stroke:#000000;stroke-width:1;stroke-linecap:butt;stroke-linejoin:miter;stroke-opacity:1;stroke-miterlimit:4;stroke-dasharray:2,1;stroke-dashoffset:0"
       d="m 291.51643,317.12596 0,-124.01575 0,0 0,0"
       id="path3765"
       inkscape:connector-curvature="0" />
    <path
       style="fill:none;stroke:#000000;stroke-width:1;stroke-linecap:butt;stroke-linejoin:miter;stroke-opacity:1;stroke-miterlimit:4;stroke-dasharray:2,1;stroke-dashoffset:0"
       d="m 429.60315,325.98423 0,-159.44882"
       id="path3767"
       inkscape:connector-curvature="0" />
    <path
       style="fill:none;stroke:#000000;stroke-width:1px;stroke-linecap:butt;stroke-linejoin:miter;stroke-opacity:1"
       d="M 429.60315,166.53541 z"
       id="path3769"
       inkscape:connector-curvature="0" />
    <path
       style="fill:none;stroke:#000000;stroke-width:1;stroke-linecap:butt;stroke-linejoin:miter;stroke-opacity:1;stroke-miterlimit:4;stroke-dasharray:2,1;stroke-dashoffset:0"
       d="m 291.51643,193.11021 0,-124.015744 0,0 138.08672,97.440944"
       id="path3771"
       inkscape:connector-curvature="0" />
    <path
       style="fill:none;stroke:#000000;stroke-width:1;stroke-linecap:butt;stroke-linejoin:miter;stroke-opacity:1;stroke-miterlimit:4;stroke-dasharray:2,1;stroke-dashoffset:0"
       d="m 398.91721,219.68502 0,-177.165357 -107.40078,26.574803 138.08672,97.440944 -30.68594,-124.015747 0,0"
       id="path3773"
       inkscape:connector-curvature="0" />
    <path
       style="fill:none;stroke:#000000;stroke-width:1px;stroke-linecap:butt;stroke-linejoin:miter;stroke-opacity:1"
       d="m 291.51643,317.12596 107.40078,-97.44094 30.68594,106.29921 z"
       id="path3775"
       inkscape:connector-curvature="0" />
    <path
       style="fill:none;stroke:#000000;stroke-width:2;stroke-linecap:butt;stroke-linejoin:miter;stroke-opacity:1;stroke-miterlimit:4;stroke-dasharray:none"
       d="m 460.28909,166.53541 0,0 -291.51642,168.30709 199.4586,115.15748"
       id="path3777"
       inkscape:connector-curvature="0" />
    <path
       style="fill:none;stroke:#000000;stroke-width:2;stroke-linecap:butt;stroke-linejoin:miter;stroke-opacity:1;stroke-miterlimit:4;stroke-dasharray:none"
       d="m 168.77267,334.8425 0,-301.181105"
       id="path3779"
       inkscape:connector-curvature="0" />
    <path
       style="fill:none;stroke:#000000;stroke-width:3;stroke-linecap:butt;stroke-linejoin:miter;stroke-opacity:1;stroke-miterlimit:4;stroke-dasharray:none"
       d="m 291.51643,69.094466 107.40078,-26.574803 30.68594,124.015747 0,0"
       id="path3781"
       inkscape:connector-curvature="0" />
    <path
       style="fill:#ff0000;stroke:#000000;stroke-width:3;stroke-linecap:butt;stroke-linejoin:miter;stroke-opacity:1;stroke-miterlimit:4;stroke-dasharray:none"
       d="m 291.51643,69.094466 138.08672,97.440944 0,0"
       id="path3783"
       inkscape:connector-curvature="0" />
    <path
       style="fill:#ff0000;fill-opacity:1;stroke:#969696;stroke-width:1.07142854000000010;stroke-miterlimit:4;stroke-opacity:1;stroke-dasharray:none;stroke-dashoffset:0"
       d="m 413.0175,152.76879 c -7.41011,-5.22854 -13.47708,-9.69614 -13.48214,-9.92802 -0.005,-0.23187 -0.33527,-0.47295 -0.7338,-0.53571 -1.01739,-0.16025 -102.93605,-72.137242 -102.5922,-72.452667 0.35053,-0.321554 101.29978,-25.321302 101.49346,-25.134522 0.0775,0.07476 0.22042,0.983211 0.31754,2.01878 0.0971,1.035569 0.35511,2.015623 0.57333,2.177899 0.285,0.211942 0.27101,0.346069 -0.0497,0.47619 -0.24554,0.09963 -0.44643,0.719073 -0.44643,1.376542 0,0.955719 0.16112,1.226432 0.80357,1.350174 l 0.80357,0.154774 -0.80357,0.04864 c -0.671,0.04061 -0.80357,0.254846 -0.80357,1.298636 0,0.998273 0.13929,1.25 0.69166,1.25 0.51059,0 0.72096,-0.288644 0.80357,-1.10258 0.064,-0.630752 5.89642,22.304529 13.62929,53.595724 7.43455,30.08406 13.46134,54.74651 13.39286,54.80544 -0.0685,0.0589 -6.18734,-4.17076 -13.59746,-9.3993 z m -13.49135,-12.00643 c 0,-1.0119 -0.13605,-1.25 -0.71428,-1.25 -0.57823,0 -0.71429,0.2381 -0.71429,1.25 0,1.0119 0.13606,1.25 0.71429,1.25 0.57823,0 0.71428,-0.2381 0.71428,-1.25 z m 0,-3.03571 c 0,-0.83334 -0.15873,-1.07143 -0.71428,-1.07143 -0.55556,0 -0.71429,0.23809 -0.71429,1.07143 0,0.83333 0.15873,1.07142 0.71429,1.07142 0.55555,0 0.71428,-0.23809 0.71428,-1.07142 z m 0,-3.03572 c 0,-1.0119 -0.13605,-1.25 -0.71428,-1.25 -0.57823,0 -0.71429,0.2381 -0.71429,1.25 0,1.01191 0.13606,1.25 0.71429,1.25 0.57823,0 0.71428,-0.23809 0.71428,-1.25 z m 0,-3.03571 c 0,-0.83333 -0.15873,-1.07143 -0.71428,-1.07143 -0.55556,0 -0.71429,0.2381 -0.71429,1.07143 0,0.83333 0.15873,1.07143 0.71429,1.07143 0.55555,0 0.71428,-0.2381 0.71428,-1.07143 z m 0,-3.03572 c 0,-1.0119 -0.13605,-1.25 -0.71428,-1.25 -0.57823,0 -0.71429,0.2381 -0.71429,1.25 0,1.01191 0.13606,1.25 0.71429,1.25 0.57823,0 0.71428,-0.23809 0.71428,-1.25 z m 0,-2.85714 c 0,-1.0119 -0.13605,-1.25 -0.71428,-1.25 -0.57823,0 -0.71429,0.2381 -0.71429,1.25 0,1.0119 0.13606,1.25 0.71429,1.25 0.57823,0 0.71428,-0.2381 0.71428,-1.25 z m 0,-3.03571 c 0,-0.83334 -0.15873,-1.07143 -0.71428,-1.07143 -0.55556,0 -0.71429,0.23809 -0.71429,1.07143 0,0.83333 0.15873,1.07142 0.71429,1.07142 0.55555,0 0.71428,-0.23809 0.71428,-1.07142 z m 0,-3.03572 c 0,-1.0119 -0.13605,-1.25 -0.71428,-1.25 -0.57823,0 -0.71429,0.2381 -0.71429,1.25 0,1.01191 0.13606,1.25 0.71429,1.25 0.57823,0 0.71428,-0.23809 0.71428,-1.25 z m 0,-3.03571 c 0,-0.83333 -0.15873,-1.07143 -0.71428,-1.07143 -0.55556,0 -0.71429,0.2381 -0.71429,1.07143 0,0.83333 0.15873,1.07143 0.71429,1.07143 0.55555,0 0.71428,-0.2381 0.71428,-1.07143 z m 0,-3.03572 c 0,-1.0119 -0.13605,-1.25 -0.71428,-1.25 -0.57823,0 -0.71429,0.2381 -0.71429,1.25 0,1.01191 0.13606,1.25 0.71429,1.25 0.57823,0 0.71428,-0.23809 0.71428,-1.25 z m 0,-2.85714 c 0,-1.0119 -0.13605,-1.25 -0.71428,-1.25 -0.57823,0 -0.71429,0.2381 -0.71429,1.25 0,1.0119 0.13606,1.25 0.71429,1.25 0.57823,0 0.71428,-0.2381 0.71428,-1.25 z m 0,-3.03571 c 0,-0.83334 -0.15873,-1.07143 -0.71428,-1.07143 -0.55556,0 -0.71429,0.23809 -0.71429,1.07143 0,0.83333 0.15873,1.07142 0.71429,1.07142 0.55555,0 0.71428,-0.23809 0.71428,-1.07142 z m 0,-3.03572 c 0,-1.0119 -0.13605,-1.25 -0.71428,-1.25 -0.57823,0 -0.71429,0.2381 -0.71429,1.25 0,1.01191 0.13606,1.25 0.71429,1.25 0.57823,0 0.71428,-0.23809 0.71428,-1.25 z m 0,-3.03571 c 0,-0.83333 -0.15873,-1.07143 -0.71428,-1.07143 -0.55556,0 -0.71429,0.2381 -0.71429,1.07143 0,0.83333 0.15873,1.07143 0.71429,1.07143 0.55555,0 0.71428,-0.2381 0.71428,-1.07143 z m 0,-3.035717 c 0,-1.011903 -0.13605,-1.25 -0.71428,-1.25 -0.57823,0 -0.71429,0.238097 -0.71429,1.25 0,1.011904 0.13606,1.25 0.71429,1.25 0.57823,0 0.71428,-0.238096 0.71428,-1.25 z m 0,-2.857143 c 0,-1.011903 -0.13605,-1.25 -0.71428,-1.25 -0.57823,0 -0.71429,0.238097 -0.71429,1.25 0,1.011904 0.13606,1.25 0.71429,1.25 0.57823,0 0.71428,-0.238096 0.71428,-1.25 z m 0,-3.035714 c 0,-0.833332 -0.15873,-1.071429 -0.71428,-1.071429 -0.55556,0 -0.71429,0.238097 -0.71429,1.071429 0,0.833332 0.15873,1.071429 0.71429,1.071429 0.55555,0 0.71428,-0.238097 0.71428,-1.071429 z m 0,-3.035714 c 0,-1.011904 -0.13605,-1.25 -0.71428,-1.25 -0.57823,0 -0.71429,0.238096 -0.71429,1.25 0,1.011903 0.13606,1.25 0.71429,1.25 0.57823,0 0.71428,-0.238097 0.71428,-1.25 z m 0,-3.035715 c 0,-0.833332 -0.15873,-1.071428 -0.71428,-1.071428 -0.55556,0 -0.71429,0.238096 -0.71429,1.071428 0,0.833333 0.15873,1.071429 0.71429,1.071429 0.55555,0 0.71428,-0.238096 0.71428,-1.071429 z m 0,-3.035714 c 0,-1.011903 -0.13605,-1.25 -0.71428,-1.25 -0.57823,0 -0.71429,0.238097 -0.71429,1.25 0,1.011904 0.13606,1.25 0.71429,1.25 0.57823,0 0.71428,-0.238096 0.71428,-1.25 z m 0,-2.857143 c 0,-1.011904 -0.13605,-1.25 -0.71428,-1.25 -0.57823,0 -0.71429,0.238096 -0.71429,1.25 0,1.011904 0.13606,1.25 0.71429,1.25 0.57823,0 0.71428,-0.238096 0.71428,-1.25 z m 0,-3.035714 c 0,-0.833333 -0.15873,-1.071429 -0.71428,-1.071429 -0.55556,0 -0.71429,0.238096 -0.71429,1.071429 0,0.833333 0.15873,1.071429 0.71429,1.071429 0.55555,0 0.71428,-0.238096 0.71428,-1.071429 z m 0,-3.035714 c 0,-1.011905 -0.13605,-1.25 -0.71428,-1.25 -0.57823,0 -0.71429,0.238095 -0.71429,1.25 0,1.011904 0.13606,1.25 0.71429,1.25 0.57823,0 0.71428,-0.238096 0.71428,-1.25 z m 0,-3.035715 c 0,-0.833333 -0.15873,-1.071428 -0.71428,-1.071428 -0.55556,0 -0.71429,0.238095 -0.71429,1.071428 0,0.833334 0.15873,1.071429 0.71429,1.071429 0.55555,0 0.71428,-0.238095 0.71428,-1.071429 z m 0,-3.035714 c 0,-1.011905 -0.13605,-1.25 -0.71428,-1.25 -0.57823,0 -0.71429,0.238095 -0.71429,1.25 0,1.011905 0.13606,1.25 0.71429,1.25 0.57823,0 0.71428,-0.238095 0.71428,-1.25 z m 0,-2.857143 c 0,-1.011904 -0.13605,-1.25 -0.71428,-1.25 -0.57823,0 -0.71429,0.238096 -0.71429,1.25 0,1.011905 0.13606,1.25 0.71429,1.25 0.57823,0 0.71428,-0.238095 0.71428,-1.25 z m 0,-3.035714 c 0,-0.833333 -0.15873,-1.071429 -0.71428,-1.071429 -0.55556,0 -0.71429,0.238096 -0.71429,1.071429 0,0.833333 0.15873,1.071429 0.71429,1.071429 0.55555,0 0.71428,-0.238096 0.71428,-1.071429 z m 0,-3.035714 c 0,-1.011905 -0.13605,-1.25 -0.71428,-1.25 -0.57823,0 -0.71429,0.238095 -0.71429,1.25 0,1.011904 0.13606,1.25 0.71429,1.25 0.57823,0 0.71428,-0.238096 0.71428,-1.25 z m 0,-3.035715 c 0,-0.833333 -0.15873,-1.071428 -0.71428,-1.071428 -0.55556,0 -0.71429,0.238095 -0.71429,1.071428 0,0.833334 0.15873,1.071429 0.71429,1.071429 0.55555,0 0.71428,-0.238095 0.71428,-1.071429 z"
       id="path3785"
       inkscape:connector-curvature="0" />
    <path
       style="fill:#00ff00;fill-opacity:1;stroke:#969696;stroke-width:1.07142854000000010;stroke-miterlimit:4;stroke-opacity:1;stroke-dasharray:none;stroke-dashoffset:0"
       d="m 315.56327,312.48734 c -3.61506,-2.07737 -6.70385,-3.89634 -6.86399,-4.04216 -0.30173,-0.27476 12.73874,-7.98044 13.50544,-7.98044 0.40671,0 13.75,7.56476 13.75,7.79534 0,0.0983 -11.35439,6.71044 -13.07003,7.61123 -0.64549,0.33892 -1.65387,-0.12715 -7.32142,-3.38397 l 0,0 z"
       id="path3787"
       inkscape:connector-curvature="0" />
    <path
       style="fill:#00ff00;fill-opacity:1;stroke:#969696;stroke-width:1.07142854;stroke-miterlimit:4;stroke-opacity:1;stroke-dasharray:none;stroke-dashoffset:0"
       d="m 330.77615,303.57658 c -3.53571,-2.06216 -6.54951,-3.86884 -6.69733,-4.01485 -0.21857,-0.21589 12.20181,-7.69982 13.2736,-7.99803 0.51479,-0.14324 13.97129,7.72309 13.68641,8.00073 -0.43575,0.42467 -13.32385,7.80677 -13.58854,7.7833 -0.13506,-0.012 -3.13842,-1.709 -6.67414,-3.77115 z"
       id="path3789"
       inkscape:connector-curvature="0" />
    <path
       style="fill:#00ff00;fill-opacity:1;stroke:#969696;stroke-width:1.07142854;stroke-miterlimit:4;stroke-opacity:1;stroke-dasharray:none;stroke-dashoffset:0"
       d="m 345.87936,294.59127 c -3.67539,-2.1059 -6.68564,-3.90927 -6.68946,-4.00748 -0.004,-0.0982 3.07336,-1.95742 6.83816,-4.13157 l 6.84511,-3.95301 6.87771,3.95301 c 5.16324,2.9676 6.77146,4.05192 6.45149,4.34983 -0.59722,0.55606 -12.99711,7.64118 -13.35088,7.62851 -0.15929,-0.006 -3.29675,-1.73339 -6.97213,-3.83929 l 0,0 z"
       id="path3791"
       inkscape:connector-curvature="0" />
    <path
       style="fill:#00ff00;fill-opacity:1;stroke:#969696;stroke-width:1.07142854;stroke-miterlimit:4;stroke-opacity:1;stroke-dasharray:none;stroke-dashoffset:0"
       d="m 333.18687,287.22206 c -2.40625,-1.37539 -4.375,-2.59904 -4.375,-2.71922 0,-0.29115 10.2523,-9.63334 10.57182,-9.63334 0.32552,0 11.54359,6.45237 11.72312,6.74287 0.0756,0.1223 -2.9411,1.99717 -6.70375,4.16639 l -6.84119,3.94402 -4.375,-2.50072 z"
       id="path3793"
       inkscape:connector-curvature="0" />
    <path
       style="fill:#00ff00;fill-opacity:1;stroke:#969696;stroke-width:1.07142854;stroke-miterlimit:4;stroke-opacity:1;stroke-dasharray:none;stroke-dashoffset:0"
       d="m 319.34758,296.97222 c -1.375,-0.80084 -2.54504,-1.49929 -2.60009,-1.5521 -0.055,-0.0528 2.31465,-2.29903 5.266,-4.99157 l 5.36608,-4.89555 4.25832,2.42826 c 2.34208,1.33555 4.19115,2.53695 4.10905,2.66979 -0.20997,0.33975 -13.22845,7.81127 -13.59704,7.80356 -0.16627,-0.003 -1.42732,-0.66155 -2.80232,-1.46239 z"
       id="path3795"
       inkscape:connector-curvature="0" />
    <path
       style="fill:#00ff00;fill-opacity:1;stroke:#969696;stroke-width:1.07142854;stroke-miterlimit:4;stroke-opacity:1;stroke-dasharray:none;stroke-dashoffset:0"
       d="m 325.46748,282.75495 c -1.28452,-0.75019 -1.57721,-1.07284 -1.22522,-1.35062 1.16023,-0.91563 13.19304,-7.64764 13.48436,-7.54412 0.2837,0.10082 -2.2829,2.52233 -8.89402,8.39128 l -1.67744,1.48912 -1.68768,-0.98566 z"
       id="path3797"
       inkscape:connector-curvature="0" />
    <path
       style="fill:#00ff00;fill-opacity:1;stroke:#969696;stroke-width:1.07142854;stroke-miterlimit:4;stroke-opacity:1;stroke-dasharray:none;stroke-dashoffset:0"
       d="m 312.11091,292.78533 c -1.62303,-0.94083 -3.09934,-1.86124 -3.28068,-2.04536 -0.20369,-0.20681 2.28912,-1.84273 6.52239,-4.28035 l 6.8521,-3.94559 1.875,1.07205 c 1.03125,0.58963 1.8634,1.15979 1.84922,1.26703 -0.0311,0.23549 -10.25683,9.44642 -10.61517,9.56176 -0.13855,0.0446 -1.57984,-0.6887 -3.20286,-1.62954 l 0,0 z"
       id="path3799"
       inkscape:connector-curvature="0" />
    <path
       style="fill:#00ff00;fill-opacity:1;stroke:#969696;stroke-width:1.07142854;stroke-miterlimit:4;stroke-opacity:1;stroke-dasharray:none;stroke-dashoffset:0"
       d="m 305.24044,317.35755 c -5.00893,-0.3475 -9.5833,-0.68787 -10.16526,-0.75636 -0.92336,-0.10868 -0.30937,-0.55368 4.82143,-3.49436 3.23375,-1.8534 6.12392,-3.51636 6.4226,-3.69545 0.39719,-0.23817 2.07605,0.55742 6.25,2.96175 8.79277,5.06493 8.23642,4.67526 7.47253,5.23382 -0.82132,0.60057 -3.10443,0.5621 -14.8013,-0.2494 z"
       id="path3805"
       inkscape:connector-curvature="0" />
    <path
       style="fill:#00ff00;fill-opacity:1;stroke:#969696;stroke-width:1.07142854;stroke-miterlimit:4;stroke-opacity:1;stroke-dasharray:none;stroke-dashoffset:0"
       d="m 300.88749,321.72337 c -3.27805,-1.89507 -5.9073,-3.49838 -5.84278,-3.5629 0.19312,-0.19312 19.21979,1.00422 20.3054,1.27781 1.05305,0.26538 1.06146,0.25959 -7.4311,5.11777 l -1.07143,0.61291 -5.96009,-3.44559 0,0 z"
       id="path3807"
       inkscape:connector-curvature="0" />
    <path
       style="fill:#00ff00;fill-opacity:1;stroke:#969696;stroke-width:1.07142854;stroke-miterlimit:4;stroke-opacity:1;stroke-dasharray:none;stroke-dashoffset:0"
       d="m 334.52615,319.27966 c -6.52317,-0.41463 -7.9091,-0.60367 -9.21067,-1.2563 -0.84265,-0.42252 -1.40515,-0.89013 -1.25,-1.03912 0.34437,-0.33069 13.23905,-7.82902 13.46336,-7.82902 0.21781,0 13.18025,7.49403 13.51222,7.81189 0.1457,0.1395 -0.77128,0.84961 -2.03775,1.57802 -2.66955,1.53539 -2.22919,1.51305 -14.47716,0.73453 z"
       id="path3809"
       inkscape:connector-curvature="0" />
    <path
       style="fill:#00ff00;fill-opacity:1;stroke:#969696;stroke-width:1.07142854;stroke-miterlimit:4;stroke-opacity:1;stroke-dasharray:none;stroke-dashoffset:0"
       d="m 333.27524,322.67916 -4.2848,-2.51384 2.5,0.20222 c 1.375,0.11122 4.50893,0.30625 6.96428,0.4334 2.45536,0.12715 4.68302,0.34757 4.95036,0.48983 0.32791,0.17448 -0.31122,0.70183 -1.96429,1.62075 -1.34769,0.74916 -2.77219,1.56896 -3.16555,1.82179 -0.63477,0.40799 -1.19709,0.17697 -5,-2.05415 l 0,0 z"
       id="path3811"
       inkscape:connector-curvature="0" />
    <path
       style="fill:#00ff00;fill-opacity:1;stroke:#969696;stroke-width:1.07142854;stroke-miterlimit:4;stroke-opacity:1;stroke-dasharray:none;stroke-dashoffset:0"
       d="m 345.74392,312.24467 -6.81794,-3.97648 6.96605,-4.00549 c 3.83133,-2.20303 7.06011,-3.95423 7.17509,-3.89157 1.9217,1.04738 13.14356,7.52692 13.34883,7.70766 0.25296,0.22274 -12.08402,7.60945 -13.34105,7.9879 -0.28217,0.0849 -3.58111,-1.63496 -7.33098,-3.82202 z"
       id="path3813"
       inkscape:connector-curvature="0" />
    <path
       style="fill:#00ff00;fill-opacity:1;stroke:#969696;stroke-width:1.07142854;stroke-miterlimit:4;stroke-opacity:1;stroke-dasharray:none;stroke-dashoffset:0"
       d="m 365.45592,321.21755 -4.60594,-0.33297 -3.1818,-1.80908 c -1.74999,-0.99499 -3.05232,-1.93709 -2.89406,-2.09354 0.31043,-0.30689 13.23464,-7.82674 13.45166,-7.82674 0.18929,0 13.21348,7.53006 13.5316,7.82342 0.14682,0.1354 -1.48094,1.24302 -3.61724,2.46138 -4.39167,2.50463 -3.7909,2.42044 -12.68422,1.77753 l 0,0 z"
       id="path3815"
       inkscape:connector-curvature="0" />
    <path
       style="fill:#00ff00;fill-opacity:1;stroke:#969696;stroke-width:1.07142854;stroke-miterlimit:4;stroke-opacity:1;stroke-dasharray:none;stroke-dashoffset:0"
       d="m 396.46804,323.11943 c -0.86631,-0.1279 -3.43057,-1.35044 -6.36384,-3.03405 -3.92009,-2.25001 -4.81769,-2.90582 -4.44188,-3.24533 0.25903,-0.23402 3.34214,-2.07257 6.85134,-4.08567 l 6.38037,-3.66019 6.65535,3.81955 c 3.66044,2.10075 6.77299,3.92766 6.91677,4.0598 0.14379,0.13214 -2.17428,1.64136 -5.15126,3.35382 -5.13943,2.95639 -5.51323,3.11086 -7.40428,3.05993 -1.09538,-0.0295 -2.64454,-0.15004 -3.44257,-0.26786 z"
       id="path3817"
       inkscape:connector-curvature="0" />
    <path
       style="fill:#00ff00;fill-opacity:1;stroke:#969696;stroke-width:1.07142854;stroke-miterlimit:4;stroke-opacity:1;stroke-dasharray:none;stroke-dashoffset:0"
       d="m 366.20385,324.00191 c -1.11547,-0.63222 -2.11462,-1.236 -2.22035,-1.34172 -0.26455,-0.26456 6.69036,0.10041 7.213,0.37851 0.24556,0.13066 -0.28341,0.61641 -1.27209,1.16818 l -1.69244,0.94453 -2.02812,-1.1495 z"
       id="path3819"
       inkscape:connector-curvature="0" />
    <path
       style="fill:#00ff00;fill-opacity:1;stroke:#969696;stroke-width:0.37880722;stroke-miterlimit:4;stroke-opacity:1;stroke-dasharray:none;stroke-dashoffset:0"
       d="m 398.20965,324.91731 c -0.36295,-0.21073 -0.64705,-0.38953 -0.63135,-0.39733 0.15701,-0.0779 2.34636,0.11583 2.29253,0.20291 -0.0393,0.0635 -0.28062,0.21948 -0.53633,0.34654 l -0.46495,0.23102 -0.6599,-0.38314 z"
       id="path3827"
       inkscape:connector-curvature="0" />
    <path
       style="fill:#00ff00;fill-opacity:1;stroke:#969696;stroke-width:1.07142854;stroke-miterlimit:4;stroke-opacity:1;stroke-dasharray:none;stroke-dashoffset:0"
       d="m 361.30312,303.49522 c -3.76519,-2.1808 -6.7384,-4.07459 -6.60715,-4.20841 0.33317,-0.33969 13.27145,-7.7924 13.52799,-7.7924 0.35854,0 13.65014,7.66718 13.66288,7.88135 0.01,0.16539 -6.59667,4.07068 -12.48793,7.38197 l -1.25,0.70258 -6.84579,-3.96509 z"
       id="path3829"
       inkscape:connector-curvature="0" />
    <path
       style="fill:#00ff00;fill-opacity:1;stroke:#969696;stroke-width:1.07142854;stroke-miterlimit:4;stroke-opacity:1;stroke-dasharray:none;stroke-dashoffset:0"
       d="m 376.89403,312.45925 c -3.44019,-2.00388 -6.46328,-3.77943 -6.71798,-3.94567 -0.52697,-0.34393 12.82991,-8.22411 13.60695,-8.0277 0.66181,0.16728 13.4726,7.5816 13.46724,7.79425 -0.006,0.25467 -13.36203,7.8607 -13.76615,7.83983 -0.18435,-0.01 -3.14988,-1.65684 -6.59006,-3.66071 z"
       id="path3831"
       inkscape:connector-curvature="0" />
    <path
       style="fill:#00ff00;fill-opacity:1;stroke:#969696;stroke-width:1.07142854;stroke-miterlimit:4;stroke-opacity:1;stroke-dasharray:none;stroke-dashoffset:0"
       d="m 376.63821,294.59239 c -3.77731,-2.1832 -6.75052,-4.07555 -6.60714,-4.20522 0.14338,-0.12967 3.25459,-1.95417 6.91379,-4.05443 l 6.65311,-3.81867 6.56118,3.79702 c 3.60865,2.08836 6.69237,3.92673 6.8527,4.08526 0.20774,0.20541 -10.42601,6.65055 -13.32723,8.07766 -0.0982,0.0483 -3.2691,-1.69842 -7.04641,-3.88162 z"
       id="path3833"
       inkscape:connector-curvature="0" />
    <path
       style="fill:#00ff00;fill-opacity:1;stroke:#969696;stroke-width:1.07142854;stroke-miterlimit:4;stroke-opacity:1;stroke-dasharray:none;stroke-dashoffset:0"
       d="m 392.01073,303.49033 c -3.76886,-2.17811 -6.74207,-4.07123 -6.60715,-4.20693 0.36354,-0.36561 13.23941,-7.78899 13.51002,-7.78899 0.33649,0 13.3139,7.52202 13.50173,7.82593 0.13312,0.2154 -3.76505,2.57096 -11.92456,7.2057 l -1.62758,0.92449 -6.85246,-3.9602 z"
       id="path3835"
       inkscape:connector-curvature="0" />
    <path
       style="fill:#00ff00;fill-opacity:1;stroke:#969696;stroke-width:1.07142854;stroke-miterlimit:4;stroke-opacity:1;stroke-dasharray:none;stroke-dashoffset:0"
       d="m 361.45113,285.83059 c -3.68377,-2.12447 -6.77494,-3.93985 -6.86927,-4.03418 -0.0943,-0.0943 2.93981,-1.96756 6.74252,-4.16274 l 6.91402,-3.99123 6.38382,3.68803 c 3.51111,2.02842 6.65381,3.83538 6.98378,4.01546 0.47397,0.25866 -0.83074,1.15238 -6.21284,4.2558 -3.74703,2.16062 -6.90987,3.9651 -7.02852,4.00996 -0.11865,0.0449 -3.22973,-1.65663 -6.91351,-3.7811 l 0,0 z"
       id="path3837"
       inkscape:connector-curvature="0" />
    <path
       style="fill:#00ff00;fill-opacity:1;stroke:#969696;stroke-width:1.07142854;stroke-miterlimit:4;stroke-opacity:1;stroke-dasharray:none;stroke-dashoffset:0"
       d="m 346.72719,277.36994 c -3.13909,-1.83391 -5.7573,-3.484 -5.81825,-3.66686 -0.21321,-0.63962 5.12741,-4.98066 8.53243,-6.93546 l 3.43532,-1.9722 6.82546,3.93076 c 3.75401,2.16191 6.74831,4.05559 6.65401,4.20817 -0.24401,0.39482 -13.25433,7.85362 -13.61922,7.80788 -0.16628,-0.0208 -2.87066,-1.53837 -6.00975,-3.37229 z"
       id="path3839"
       inkscape:connector-curvature="0" />
    <path
       style="fill:#00ff00;fill-opacity:1;stroke:#969696;stroke-width:1.07142854;stroke-miterlimit:4;stroke-opacity:1;stroke-dasharray:none;stroke-dashoffset:0"
       d="m 361.54176,268.16761 c -3.4375,-2.0037 -6.46059,-3.77784 -6.71798,-3.94254 -0.5393,-0.34509 12.82567,-8.21749 13.6239,-8.02491 0.66062,0.15938 13.44751,7.5726 13.44412,7.79425 -0.004,0.26165 -13.33718,7.86081 -13.74997,7.83671 -0.19254,-0.0112 -3.16257,-1.65982 -6.60007,-3.66351 z"
       id="path3841"
       inkscape:connector-curvature="0" />
    <path
       style="fill:#00ff00;fill-opacity:1;stroke:#969696;stroke-width:1.07142854;stroke-miterlimit:4;stroke-opacity:1;stroke-dasharray:none;stroke-dashoffset:0"
       d="m 376.66026,259.19658 c -3.76519,-2.17369 -6.7384,-4.06319 -6.60714,-4.19889 0.34765,-0.35942 13.22883,-7.78899 13.50432,-7.78899 0.36045,0 13.67291,7.65376 13.68654,7.86883 0.0102,0.16063 -6.09782,3.76922 -12.11036,7.15477 l -1.62757,0.91645 -6.84579,-3.95217 z"
       id="path3843"
       inkscape:connector-curvature="0" />
    <path
       style="fill:#00ff00;fill-opacity:1;stroke:#969696;stroke-width:1.07142854;stroke-miterlimit:4;stroke-opacity:1;stroke-dasharray:none;stroke-dashoffset:0"
       d="m 391.9907,250.32016 c -3.77986,-2.1855 -6.75308,-4.08369 -6.60714,-4.21821 0.14594,-0.13451 3.23479,-1.95777 6.86411,-4.05167 4.616,-2.66316 6.76619,-3.72107 7.15598,-3.52077 0.30647,0.15748 1.55784,0.84883 2.78083,1.53633 2.44714,1.37565 2.09104,0.7066 4.13241,7.76401 l 0.54123,1.87116 -2.56889,1.48501 c -1.41289,0.81676 -3.21175,1.85014 -3.99747,2.2964 l -1.42857,0.81138 -6.87249,-3.97364 z"
       id="path3845"
       inkscape:connector-curvature="0" />
    <path
       style="fill:#00ff00;fill-opacity:1;stroke:#969696;stroke-width:1.07142854;stroke-miterlimit:4;stroke-opacity:1;stroke-dasharray:none;stroke-dashoffset:0"
       d="m 380.11319,243.45358 c -1.86607,-1.07065 -3.39286,-2.1062 -3.39286,-2.30122 0,-0.56116 10.24811,-9.70847 10.68173,-9.53435 0.21434,0.0861 2.57741,1.42568 5.25128,2.97691 l 4.86157,2.82041 -6.7887,3.91454 c -3.73378,2.153 -6.88578,3.9496 -7.00443,3.99244 -0.11865,0.0429 -1.74252,-0.79808 -3.60859,-1.86873 z"
       id="path3847"
       inkscape:connector-curvature="0" />
    <path
       style="fill:#00ff00;fill-opacity:1;stroke:#969696;stroke-width:1.07142854;stroke-miterlimit:4;stroke-opacity:1;stroke-dasharray:none;stroke-dashoffset:0"
       d="m 372.15666,238.90894 c -1.33145,-0.79307 -2.36958,-1.49318 -2.30696,-1.5558 0.0626,-0.0626 3.14628,-1.87383 6.85256,-4.02489 l 6.73868,-3.91103 1.2003,0.57238 c 0.95933,0.45747 1.10926,0.6598 0.74684,1.00784 -2.30706,2.21545 -10.43862,9.41751 -10.6013,9.38949 -0.11512,-0.0198 -1.29867,-0.68492 -2.63012,-1.47799 z"
       id="path3849"
       inkscape:connector-curvature="0" />
    <path
       style="fill:#00ff00;fill-opacity:1;stroke:#969696;stroke-width:1.07142854;stroke-miterlimit:4;stroke-opacity:1;stroke-dasharray:none;stroke-dashoffset:0"
       d="m 393.54682,233.51719 c -2.72757,-1.6036 -4.93175,-3.07635 -4.89818,-3.27278 0.0748,-0.4378 9.72083,-9.1842 9.91485,-8.99017 0.0763,0.0763 0.98892,3.10441 2.02811,6.72921 l 1.88944,6.59054 -1.71983,0.96021 c -0.9459,0.52812 -1.84027,0.94636 -1.98749,0.92942 -0.14722,-0.0169 -2.49932,-1.34282 -5.2269,-2.94643 l 0,0 z"
       id="path3851"
       inkscape:connector-curvature="0" />
    <path
       style="fill:#00ff00;fill-opacity:1;stroke:#969696;stroke-width:1.07142854;stroke-miterlimit:4;stroke-opacity:1;stroke-dasharray:none;stroke-dashoffset:0"
       d="m 385.89867,229.07235 c -0.80951,-0.53815 -0.77252,-0.57513 2.5,-2.49925 4.50208,-2.64707 4.76923,-2.67542 2.09549,-0.22237 -3.70028,3.39487 -3.63812,3.35806 -4.59549,2.72162 z"
       id="path3853"
       inkscape:connector-curvature="0" />
    <path
       style="fill:#00ff00;fill-opacity:1;stroke:#969696;stroke-width:1.07142854;stroke-miterlimit:4;stroke-opacity:1;stroke-dasharray:none;stroke-dashoffset:0"
       d="m 402.84213,230.69084 c -0.48714,-1.62054 -1.23047,-4.15179 -1.65185,-5.625 -0.42137,-1.47322 -0.84461,-2.9525 -0.94052,-3.28731 -0.114,-0.39797 2.00128,0.64358 6.1093,3.00818 4.92705,2.83603 6.18412,3.70637 5.82248,4.03124 -0.50091,0.45 -8.01409,4.81932 -8.28695,4.81932 -0.0917,0 -0.56531,-1.32589 -1.05246,-2.94643 z"
       id="path3855"
       inkscape:connector-curvature="0" />
    <path
       style="fill:#00ff00;fill-opacity:1;stroke:#969696;stroke-width:1.07142854;stroke-miterlimit:4;stroke-opacity:1;stroke-dasharray:none;stroke-dashoffset:0"
       d="m 407.18887,245.85954 c -0.49917,-1.71332 -0.86765,-3.16342 -0.81884,-3.22245 0.0488,-0.059 1.48979,0.72021 3.20218,1.73164 1.71238,1.01143 2.97658,1.95971 2.80934,2.10731 -0.16724,0.14759 -1.1998,0.77016 -2.29459,1.38349 l -1.99051,1.11515 -0.90758,-3.11514 z"
       id="path3857"
       inkscape:connector-curvature="0" />
    <path
       style="fill:#00ff00;fill-opacity:1;stroke:#969696;stroke-width:0.37880722;stroke-miterlimit:4;stroke-opacity:1;stroke-dasharray:none;stroke-dashoffset:0"
       d="m 338.79798,272.94268 c -0.10389,-0.0413 0.16545,-0.26425 0.67964,-0.56255 0.46845,-0.27176 0.87508,-0.47077 0.90361,-0.44223 0.0795,0.0795 -1.1117,1.09454 -1.27111,1.08319 -0.077,-0.005 -0.2175,-0.0408 -0.31214,-0.0784 z"
       id="path3863"
       inkscape:connector-curvature="0" />
    <path
       style="fill:#00ff00;fill-opacity:1;stroke:#969696;stroke-width:1.07142854;stroke-miterlimit:4;stroke-opacity:1;stroke-dasharray:none;stroke-dashoffset:0"
       d="m 391.91908,267.98769 c -3.7908,-2.18185 -6.84437,-4.00791 -6.78572,-4.05791 0.5695,-0.48541 13.41913,-7.78375 13.71728,-7.79113 0.21799,-0.005 2.98041,1.47649 6.13872,3.29309 5.01574,2.88496 5.77207,3.43804 5.97693,4.37078 0.129,0.58732 0.17907,1.11326 0.11127,1.16875 -0.25475,0.20851 -12.05774,6.99073 -12.15964,6.98716 -0.0586,-0.002 -3.20805,-1.78888 -6.99884,-3.97074 l 0,0 z"
       id="path3865"
       inkscape:connector-curvature="0" />
    <path
       style="fill:#00ff00;fill-opacity:1;stroke:#969696;stroke-width:1.07142854;stroke-miterlimit:4;stroke-opacity:1;stroke-dasharray:none;stroke-dashoffset:0"
       d="m 407.38458,276.91744 c -3.73119,-2.16696 -6.82738,-3.98332 -6.88042,-4.03636 -0.053,-0.053 2.43471,-1.5561 5.52833,-3.34013 l 5.62476,-3.2437 1.91041,6.67174 c 1.83536,6.40962 1.96605,7.502 0.93254,7.79452 -0.18239,0.0516 -3.38442,-1.67911 -7.11562,-3.84607 l 0,0 z"
       id="path3867"
       inkscape:connector-curvature="0" />
    <path
       style="fill:#00ff00;fill-opacity:1;stroke:#969696;stroke-width:1.07142854;stroke-miterlimit:4;stroke-opacity:1;stroke-dasharray:none;stroke-dashoffset:0"
       d="m 416.67596,278.65859 c -0.0818,-0.24554 -0.88652,-3.01786 -1.78823,-6.16072 -0.9017,-3.14285 -1.72136,-5.98574 -1.82147,-6.31753 -0.11156,-0.36976 0.0968,-0.75247 0.53834,-0.98877 0.61281,-0.32796 1.75493,0.21437 7.64986,3.63248 l 6.92951,4.018 -5.40056,3.12448 c -2.9703,1.71847 -5.52613,3.12764 -5.67962,3.13149 -0.15348,0.004 -0.34601,-0.1939 -0.42783,-0.43943 z"
       id="path3869"
       inkscape:connector-curvature="0" />
    <path
       style="fill:#00ff00;fill-opacity:1;stroke:#969696;stroke-width:1.07142854;stroke-miterlimit:4;stroke-opacity:1;stroke-dasharray:none;stroke-dashoffset:0"
       d="m 407.38868,294.6458 c -3.53251,-2.04607 -6.47038,-3.86303 -6.5286,-4.03769 -0.0582,-0.17466 2.89249,-2.04599 6.55712,-4.15852 l 6.66298,-3.84096 1.32631,0.59808 c 1.32233,0.59629 1.3309,0.61438 2.84875,6.01605 0.83734,2.97989 1.5461,5.56302 1.57503,5.74031 0.0649,0.39783 -4.74373,3.36999 -5.48312,3.38905 -0.29465,0.008 -3.42596,-1.66025 -6.95847,-3.70632 z"
       id="path3871"
       inkscape:connector-curvature="0" />
    <path
       style="fill:#00ff00;fill-opacity:1;stroke:#969696;stroke-width:1.07142854;stroke-miterlimit:4;stroke-opacity:1;stroke-dasharray:none;stroke-dashoffset:0"
       d="m 394.70429,287.3345 c -2.25893,-1.32179 -5.36593,-3.12927 -6.90444,-4.01661 l -2.7973,-1.61336 6.36873,-3.67979 c 3.5028,-2.02389 6.62729,-3.83863 6.94332,-4.03277 0.44402,-0.27275 2.12514,0.53195 7.39711,3.54076 3.75238,2.14154 6.82863,3.99419 6.83612,4.117 0.0113,0.18462 -5.89546,3.68083 -12.30783,7.28506 l -1.42857,0.80297 -4.10714,-2.40326 0,0 z"
       id="path3873"
       inkscape:connector-curvature="0" />
    <path
       style="fill:#00ff00;fill-opacity:1;stroke:#969696;stroke-width:1.07142854;stroke-miterlimit:4;stroke-opacity:1;stroke-dasharray:none;stroke-dashoffset:0"
       d="m 377.02572,277.10414 c -3.53572,-2.06203 -6.63843,-3.87305 -6.89492,-4.02448 -0.30564,-0.18045 1.93348,-1.65587 6.49747,-4.28138 l 6.96381,-4.00604 6.89539,3.98607 c 3.79247,2.19234 6.9228,4.00708 6.95629,4.03277 0.0631,0.0484 -13.42166,7.84671 -13.78452,7.97165 -0.11272,0.0388 -3.09781,-1.61655 -6.63352,-3.67859 z"
       id="path3875"
       inkscape:connector-curvature="0" />
    <path
       style="fill:#00ff00;fill-opacity:1;stroke:#969696;stroke-width:1.07142854;stroke-miterlimit:4;stroke-opacity:1;stroke-dasharray:none;stroke-dashoffset:0"
       d="m 407.27536,312.2772 c -3.79039,-2.18388 -6.8436,-4.01628 -6.78492,-4.07201 0.42985,-0.40822 13.40506,-7.76729 13.71307,-7.77757 0.21565,-0.007 2.25664,1.06965 4.53553,2.39299 l 4.14345,2.40607 0.57398,2.02846 c 0.31568,1.11565 0.65114,2.29418 0.74545,2.61896 0.13018,0.44832 -1.02981,1.28687 -4.81691,3.48215 -2.74361,1.59039 -5.04006,2.89163 -5.10321,2.89163 -0.0632,0 -3.21606,-1.78681 -7.00644,-3.97068 z"
       id="path3877"
       inkscape:connector-curvature="0" />
    <path
       style="fill:#00ff00;fill-opacity:1;stroke:#969696;stroke-width:1.07142854;stroke-miterlimit:4;stroke-opacity:1;stroke-dasharray:none;stroke-dashoffset:0"
       d="m 419.93448,289.95913 c -0.72946,-2.48595 -1.26689,-4.57932 -1.19428,-4.65193 0.15941,-0.15941 9.16362,4.97198 9.17092,5.22639 0.004,0.14521 -5.59547,3.50252 -6.41759,3.84773 -0.12801,0.0537 -0.82958,-1.93624 -1.55905,-4.42219 z"
       id="path3879"
       inkscape:connector-curvature="0" />
    <path
       style="fill:#00ff00;fill-opacity:1;stroke:#969696;stroke-width:1.07142854;stroke-miterlimit:4;stroke-opacity:1;stroke-dasharray:none;stroke-dashoffset:0"
       d="m 425.12311,307.95583 c -0.21029,-0.82848 -0.35038,-1.53751 -0.3113,-1.57561 0.0391,-0.0381 0.77581,0.34747 1.63717,0.85682 l 1.56613,0.92609 -0.80212,0.64951 c -1.21414,0.98315 -1.67032,0.79613 -2.08988,-0.85681 z"
       id="path3883"
       inkscape:connector-curvature="0" />
    <path
       style="fill:#00ff00;fill-opacity:1;stroke:#969696;stroke-width:1.07142854;stroke-miterlimit:4;stroke-opacity:1;stroke-dasharray:none;stroke-dashoffset:0"
       d="m 415.77572,324.43808 c -5.00893,-0.35077 -9.66738,-0.64956 -10.35211,-0.66398 -1.1289,-0.0238 -0.78183,-0.2926 3.72273,-2.88337 2.73224,-1.57143 5.0383,-2.85714 5.12459,-2.85714 0.17917,0 10.60233,5.95807 11.67354,6.67282 0.67494,0.45033 0.66745,0.46793 -0.17857,0.41973 -0.48567,-0.0277 -4.98125,-0.3373 -9.99018,-0.68806 z"
       id="path3887"
       inkscape:connector-curvature="0" />
    <path
       style="fill:#00ff00;fill-opacity:1;stroke:#969696;stroke-width:1.07142854;stroke-miterlimit:4;stroke-opacity:1;stroke-dasharray:none;stroke-dashoffset:0"
       d="m 410.06143,331.61477 c -2.25893,-1.3188 -5.37633,-3.12985 -6.92756,-4.02457 l -2.82042,-1.62676 1.0347,-0.52992 c 0.92287,-0.47264 2.33632,-0.44564 13.07687,0.24985 6.62318,0.42887 12.11589,0.8535 12.206,0.94362 0.14404,0.14404 -4.45368,2.89684 -10.47398,6.27109 l -1.98847,1.11449 -4.10714,-2.3978 z"
       id="path3889"
       inkscape:connector-curvature="0" />
    <path
       style="fill:#00ff00;fill-opacity:1;stroke:#969696;stroke-width:0.37880722;stroke-miterlimit:4;stroke-opacity:1;stroke-dasharray:none;stroke-dashoffset:0"
       d=""
       id="path3891"
       inkscape:connector-curvature="0" />
    <path
       style="fill:#00ff00;fill-opacity:1;stroke:#969696;stroke-width:0.37880722;stroke-miterlimit:4;stroke-opacity:1;stroke-dasharray:none;stroke-dashoffset:0"
       d="m 412.28694,263.92711 c -0.15153,-0.49373 -0.14575,-0.4976 0.3554,-0.23845 0.45037,0.2329 0.46745,0.35492 0.0747,0.53386 -0.27279,0.12429 -0.30893,0.0995 -0.43012,-0.29541 z"
       id="path3893"
       inkscape:connector-curvature="0" />
    <flowRoot
       xml:space="preserve"
       id="flowRoot3895"
       style="font-size:20px;font-style:normal;font-weight:normal;line-height:125%;letter-spacing:0px;word-spacing:0px;fill:#000000;fill-opacity:1;stroke:none;font-family:Sans"><flowRegion
         id="flowRegion3897"><rect
           id="rect3899"
           width="24.642857"
           height="24.285715"
           x="175.35715"
           y="29.505037" /></flowRegion><flowPara
         id="flowPara3901">Y</flowPara></flowRoot>    <flowRoot
       xml:space="preserve"
       id="flowRoot3903"
       style="font-size:20px;font-style:normal;font-weight:normal;line-height:125%;letter-spacing:0px;word-spacing:0px;fill:#000000;fill-opacity:1;stroke:none;font-family:Sans"
       transform="translate(-3.4235635,-11.517348)"><flowRegion
         id="flowRegion3905"><rect
           id="rect3907"
           width="32.142857"
           height="22.857143"
           x="466.78571"
           y="166.64789" /></flowRegion><flowPara
         id="flowPara3909">Z</flowPara></flowRoot>    <flowRoot
       xml:space="preserve"
       id="flowRoot3911"
       style="font-size:20px;font-style:normal;font-weight:normal;line-height:125%;letter-spacing:0px;word-spacing:0px;fill:#000000;fill-opacity:1;stroke:none;font-family:Sans"
       transform="translate(-4.418882,-0.57197392)"><flowRegion
         id="flowRegion3913"><rect
           id="rect3915"
           width="30"
           height="28.571428"
           x="375.71429"
           y="442.71933" /></flowRegion><flowPara
         id="flowPara3917">X</flowPara></flowRoot>  </g>
</svg>
